# xmcd CD database file
#
# Track frame offsets:
#	150
#	18920
#	39695
#	58422
#
# Disc length: 1053 seconds
#
# Revision: 0
# Processed by: cddbd v1.5.1PL0 Copyright (c) Steve Scherf et al.
# Submitted via: CDex 1.51
#
DISCID=31041b04
DTITLE=石塚早織 - 明日の私を信じたい
DYEAR=1996
DGENRE=Anime
TTITLE0=明日の私を信じたい
TTITLE1=君なら大丈夫
TTITLE2=明日の私を信じたい (オリジナルカラオケ）
TTITLE3=君なら大丈夫 (オリジナルカラオケ）
EXTD=YEAR: 1996
EXTT0=
EXTT1=
EXTT2=
EXTT3=
PLAYORDER=
